G04 #@! TF.GenerationSoftware,KiCad,Pcbnew,(5.1.9-0-10_14)*
G04 #@! TF.CreationDate,2021-02-25T22:57:31+01:00*
G04 #@! TF.ProjectId,sansamp-gt-2,73616e73-616d-4702-9d67-742d322e6b69,rev?*
G04 #@! TF.SameCoordinates,Original*
G04 #@! TF.FileFunction,Soldermask,Bot*
G04 #@! TF.FilePolarity,Negative*
%FSLAX46Y46*%
G04 Gerber Fmt 4.6, Leading zero omitted, Abs format (unit mm)*
G04 Created by KiCad (PCBNEW (5.1.9-0-10_14)) date 2021-02-25 22:57:31*
%MOMM*%
%LPD*%
G01*
G04 APERTURE LIST*
%ADD10O,1.930400X2.400000*%
%ADD11O,2.000000X2.000000*%
%ADD12R,2.000000X2.000000*%
%ADD13R,3.810000X3.810000*%
%ADD14O,3.810000X3.810000*%
%ADD15O,2.810000X3.810000*%
%ADD16O,1.930400X1.930400*%
%ADD17O,2.540000X2.540000*%
%ADD18R,2.540000X2.540000*%
%ADD19O,2.032000X2.032000*%
%ADD20R,1.930400X1.930400*%
%ADD21O,1.508000X1.508000*%
%ADD22R,1.508000X1.508000*%
G04 APERTURE END LIST*
D10*
X157340000Y-76073000D03*
X141110000Y-76073000D03*
X157340000Y-63373000D03*
X141110000Y-63373000D03*
X157340000Y-69723000D03*
X141110000Y-69723000D03*
X92570000Y-76073000D03*
X76340000Y-76073000D03*
X92570000Y-63373000D03*
X76340000Y-63373000D03*
X92570000Y-69723000D03*
X76340000Y-69723000D03*
D11*
X168910000Y-99060000D03*
X168910000Y-101600000D03*
X168910000Y-104140000D03*
X168910000Y-106680000D03*
X168910000Y-109220000D03*
X168910000Y-111760000D03*
X168910000Y-114300000D03*
X161290000Y-114300000D03*
X161290000Y-111760000D03*
X161290000Y-109220000D03*
X161290000Y-106680000D03*
X161290000Y-104140000D03*
X161290000Y-101600000D03*
D12*
X161290000Y-99060000D03*
D11*
X135763000Y-81788000D03*
X140843000Y-81788000D03*
D13*
X116713000Y-70485000D03*
D14*
X116713000Y-63500000D03*
D15*
X111633000Y-66675000D03*
D11*
X99060000Y-131953000D03*
D12*
X96520000Y-131953000D03*
D11*
X72390000Y-107696000D03*
X72390000Y-110236000D03*
X72390000Y-112776000D03*
X72390000Y-115316000D03*
X64770000Y-115316000D03*
X64770000Y-112776000D03*
X64770000Y-110236000D03*
D12*
X64770000Y-107696000D03*
D16*
X149987000Y-102949000D03*
X149987000Y-96949000D03*
G36*
G01*
X156486305Y-97256900D02*
X156486305Y-97256900D01*
G75*
G02*
X157008668Y-95995805I891729J369366D01*
G01*
X157008668Y-95995805D01*
G75*
G02*
X158269763Y-96518168I369366J-891729D01*
G01*
X158269763Y-96518168D01*
G75*
G02*
X157747400Y-97779263I-891729J-369366D01*
G01*
X157747400Y-97779263D01*
G75*
G02*
X156486305Y-97256900I-369366J891729D01*
G01*
G37*
G36*
G01*
X152156737Y-107709400D02*
X152156737Y-107709400D01*
G75*
G02*
X152679100Y-106448305I891729J369366D01*
G01*
X152679100Y-106448305D01*
G75*
G02*
X153940195Y-106970668I369366J-891729D01*
G01*
X153940195Y-106970668D01*
G75*
G02*
X153417832Y-108231763I-891729J-369366D01*
G01*
X153417832Y-108231763D01*
G75*
G02*
X152156737Y-107709400I-369366J891729D01*
G01*
G37*
G36*
G01*
X141704237Y-103379832D02*
X141704237Y-103379832D01*
G75*
G02*
X142226600Y-102118737I891729J369366D01*
G01*
X142226600Y-102118737D01*
G75*
G02*
X143487695Y-102641100I369366J-891729D01*
G01*
X143487695Y-102641100D01*
G75*
G02*
X142965332Y-103902195I-891729J-369366D01*
G01*
X142965332Y-103902195D01*
G75*
G02*
X141704237Y-103379832I-369366J891729D01*
G01*
G37*
G36*
G01*
X146033805Y-92927332D02*
X146033805Y-92927332D01*
G75*
G02*
X146556168Y-91666237I891729J369366D01*
G01*
X146556168Y-91666237D01*
G75*
G02*
X147817263Y-92188600I369366J-891729D01*
G01*
X147817263Y-92188600D01*
G75*
G02*
X147294900Y-93449695I-891729J-369366D01*
G01*
X147294900Y-93449695D01*
G75*
G02*
X146033805Y-92927332I-369366J891729D01*
G01*
G37*
G36*
G01*
X142226600Y-97779263D02*
X142226600Y-97779263D01*
G75*
G02*
X141704237Y-96518168I369366J891729D01*
G01*
X141704237Y-96518168D01*
G75*
G02*
X142965332Y-95995805I891729J-369366D01*
G01*
X142965332Y-95995805D01*
G75*
G02*
X143487695Y-97256900I-369366J-891729D01*
G01*
X143487695Y-97256900D01*
G75*
G02*
X142226600Y-97779263I-891729J369366D01*
G01*
G37*
G36*
G01*
X147817263Y-107709400D02*
X147817263Y-107709400D01*
G75*
G02*
X146556168Y-108231763I-891729J369366D01*
G01*
X146556168Y-108231763D01*
G75*
G02*
X146033805Y-106970668I369366J891729D01*
G01*
X146033805Y-106970668D01*
G75*
G02*
X147294900Y-106448305I891729J-369366D01*
G01*
X147294900Y-106448305D01*
G75*
G02*
X147817263Y-107709400I-369366J-891729D01*
G01*
G37*
G36*
G01*
X157747400Y-102118737D02*
X157747400Y-102118737D01*
G75*
G02*
X158269763Y-103379832I-369366J-891729D01*
G01*
X158269763Y-103379832D01*
G75*
G02*
X157008668Y-103902195I-891729J369366D01*
G01*
X157008668Y-103902195D01*
G75*
G02*
X156486305Y-102641100I369366J891729D01*
G01*
X156486305Y-102641100D01*
G75*
G02*
X157747400Y-102118737I891729J-369366D01*
G01*
G37*
G36*
G01*
X152156737Y-92188600D02*
X152156737Y-92188600D01*
G75*
G02*
X153417832Y-91666237I891729J-369366D01*
G01*
X153417832Y-91666237D01*
G75*
G02*
X153940195Y-92927332I-369366J-891729D01*
G01*
X153940195Y-92927332D01*
G75*
G02*
X152679100Y-93449695I-891729J369366D01*
G01*
X152679100Y-93449695D01*
G75*
G02*
X152156737Y-92188600I369366J891729D01*
G01*
G37*
X86693000Y-99949000D03*
X80693000Y-99949000D03*
G36*
G01*
X81000900Y-93449695D02*
X81000900Y-93449695D01*
G75*
G02*
X79739805Y-92927332I-369366J891729D01*
G01*
X79739805Y-92927332D01*
G75*
G02*
X80262168Y-91666237I891729J369366D01*
G01*
X80262168Y-91666237D01*
G75*
G02*
X81523263Y-92188600I369366J-891729D01*
G01*
X81523263Y-92188600D01*
G75*
G02*
X81000900Y-93449695I-891729J-369366D01*
G01*
G37*
G36*
G01*
X91453400Y-97779263D02*
X91453400Y-97779263D01*
G75*
G02*
X90192305Y-97256900I-369366J891729D01*
G01*
X90192305Y-97256900D01*
G75*
G02*
X90714668Y-95995805I891729J369366D01*
G01*
X90714668Y-95995805D01*
G75*
G02*
X91975763Y-96518168I369366J-891729D01*
G01*
X91975763Y-96518168D01*
G75*
G02*
X91453400Y-97779263I-891729J-369366D01*
G01*
G37*
G36*
G01*
X87123832Y-108231763D02*
X87123832Y-108231763D01*
G75*
G02*
X85862737Y-107709400I-369366J891729D01*
G01*
X85862737Y-107709400D01*
G75*
G02*
X86385100Y-106448305I891729J369366D01*
G01*
X86385100Y-106448305D01*
G75*
G02*
X87646195Y-106970668I369366J-891729D01*
G01*
X87646195Y-106970668D01*
G75*
G02*
X87123832Y-108231763I-891729J-369366D01*
G01*
G37*
G36*
G01*
X76671332Y-103902195D02*
X76671332Y-103902195D01*
G75*
G02*
X75410237Y-103379832I-369366J891729D01*
G01*
X75410237Y-103379832D01*
G75*
G02*
X75932600Y-102118737I891729J369366D01*
G01*
X75932600Y-102118737D01*
G75*
G02*
X77193695Y-102641100I369366J-891729D01*
G01*
X77193695Y-102641100D01*
G75*
G02*
X76671332Y-103902195I-891729J-369366D01*
G01*
G37*
G36*
G01*
X81523263Y-107709400D02*
X81523263Y-107709400D01*
G75*
G02*
X80262168Y-108231763I-891729J369366D01*
G01*
X80262168Y-108231763D01*
G75*
G02*
X79739805Y-106970668I369366J891729D01*
G01*
X79739805Y-106970668D01*
G75*
G02*
X81000900Y-106448305I891729J-369366D01*
G01*
X81000900Y-106448305D01*
G75*
G02*
X81523263Y-107709400I-369366J-891729D01*
G01*
G37*
G36*
G01*
X91453400Y-102118737D02*
X91453400Y-102118737D01*
G75*
G02*
X91975763Y-103379832I-369366J-891729D01*
G01*
X91975763Y-103379832D01*
G75*
G02*
X90714668Y-103902195I-891729J369366D01*
G01*
X90714668Y-103902195D01*
G75*
G02*
X90192305Y-102641100I369366J891729D01*
G01*
X90192305Y-102641100D01*
G75*
G02*
X91453400Y-102118737I891729J-369366D01*
G01*
G37*
G36*
G01*
X85862737Y-92188600D02*
X85862737Y-92188600D01*
G75*
G02*
X87123832Y-91666237I891729J-369366D01*
G01*
X87123832Y-91666237D01*
G75*
G02*
X87646195Y-92927332I-369366J-891729D01*
G01*
X87646195Y-92927332D01*
G75*
G02*
X86385100Y-93449695I-891729J369366D01*
G01*
X86385100Y-93449695D01*
G75*
G02*
X85862737Y-92188600I369366J891729D01*
G01*
G37*
G36*
G01*
X75932600Y-97779263D02*
X75932600Y-97779263D01*
G75*
G02*
X75410237Y-96518168I369366J891729D01*
G01*
X75410237Y-96518168D01*
G75*
G02*
X76671332Y-95995805I891729J-369366D01*
G01*
X76671332Y-95995805D01*
G75*
G02*
X77193695Y-97256900I-369366J-891729D01*
G01*
X77193695Y-97256900D01*
G75*
G02*
X75932600Y-97779263I-891729J369366D01*
G01*
G37*
X116840000Y-96949000D03*
X116840000Y-102949000D03*
G36*
G01*
X110340695Y-102641100D02*
X110340695Y-102641100D01*
G75*
G02*
X109818332Y-103902195I-891729J-369366D01*
G01*
X109818332Y-103902195D01*
G75*
G02*
X108557237Y-103379832I-369366J891729D01*
G01*
X108557237Y-103379832D01*
G75*
G02*
X109079600Y-102118737I891729J369366D01*
G01*
X109079600Y-102118737D01*
G75*
G02*
X110340695Y-102641100I369366J-891729D01*
G01*
G37*
G36*
G01*
X114670263Y-92188600D02*
X114670263Y-92188600D01*
G75*
G02*
X114147900Y-93449695I-891729J-369366D01*
G01*
X114147900Y-93449695D01*
G75*
G02*
X112886805Y-92927332I-369366J891729D01*
G01*
X112886805Y-92927332D01*
G75*
G02*
X113409168Y-91666237I891729J369366D01*
G01*
X113409168Y-91666237D01*
G75*
G02*
X114670263Y-92188600I369366J-891729D01*
G01*
G37*
G36*
G01*
X125122763Y-96518168D02*
X125122763Y-96518168D01*
G75*
G02*
X124600400Y-97779263I-891729J-369366D01*
G01*
X124600400Y-97779263D01*
G75*
G02*
X123339305Y-97256900I-369366J891729D01*
G01*
X123339305Y-97256900D01*
G75*
G02*
X123861668Y-95995805I891729J369366D01*
G01*
X123861668Y-95995805D01*
G75*
G02*
X125122763Y-96518168I369366J-891729D01*
G01*
G37*
G36*
G01*
X120793195Y-106970668D02*
X120793195Y-106970668D01*
G75*
G02*
X120270832Y-108231763I-891729J-369366D01*
G01*
X120270832Y-108231763D01*
G75*
G02*
X119009737Y-107709400I-369366J891729D01*
G01*
X119009737Y-107709400D01*
G75*
G02*
X119532100Y-106448305I891729J369366D01*
G01*
X119532100Y-106448305D01*
G75*
G02*
X120793195Y-106970668I369366J-891729D01*
G01*
G37*
G36*
G01*
X124600400Y-102118737D02*
X124600400Y-102118737D01*
G75*
G02*
X125122763Y-103379832I-369366J-891729D01*
G01*
X125122763Y-103379832D01*
G75*
G02*
X123861668Y-103902195I-891729J369366D01*
G01*
X123861668Y-103902195D01*
G75*
G02*
X123339305Y-102641100I369366J891729D01*
G01*
X123339305Y-102641100D01*
G75*
G02*
X124600400Y-102118737I891729J-369366D01*
G01*
G37*
G36*
G01*
X119009737Y-92188600D02*
X119009737Y-92188600D01*
G75*
G02*
X120270832Y-91666237I891729J-369366D01*
G01*
X120270832Y-91666237D01*
G75*
G02*
X120793195Y-92927332I-369366J-891729D01*
G01*
X120793195Y-92927332D01*
G75*
G02*
X119532100Y-93449695I-891729J369366D01*
G01*
X119532100Y-93449695D01*
G75*
G02*
X119009737Y-92188600I369366J891729D01*
G01*
G37*
G36*
G01*
X109079600Y-97779263D02*
X109079600Y-97779263D01*
G75*
G02*
X108557237Y-96518168I369366J891729D01*
G01*
X108557237Y-96518168D01*
G75*
G02*
X109818332Y-95995805I891729J-369366D01*
G01*
X109818332Y-95995805D01*
G75*
G02*
X110340695Y-97256900I-369366J-891729D01*
G01*
X110340695Y-97256900D01*
G75*
G02*
X109079600Y-97779263I-891729J369366D01*
G01*
G37*
G36*
G01*
X114670263Y-107709400D02*
X114670263Y-107709400D01*
G75*
G02*
X113409168Y-108231763I-891729J369366D01*
G01*
X113409168Y-108231763D01*
G75*
G02*
X112886805Y-106970668I369366J891729D01*
G01*
X112886805Y-106970668D01*
G75*
G02*
X114147900Y-106448305I891729J-369366D01*
G01*
X114147900Y-106448305D01*
G75*
G02*
X114670263Y-107709400I-369366J-891729D01*
G01*
G37*
D17*
X90170000Y-86487000D03*
X95250000Y-86487000D03*
D18*
X100330000Y-86487000D03*
D17*
X133350000Y-86360000D03*
X138430000Y-86360000D03*
D18*
X143510000Y-86360000D03*
D17*
X154940000Y-86360000D03*
X160020000Y-86360000D03*
D18*
X165100000Y-86360000D03*
D16*
X130302000Y-67564000D03*
X127762000Y-65024000D03*
X125222000Y-67564000D03*
D17*
X111760000Y-86487000D03*
X116840000Y-86487000D03*
D18*
X121920000Y-86487000D03*
D17*
X68580000Y-86487000D03*
X73660000Y-86487000D03*
D18*
X78740000Y-86487000D03*
D11*
X102362000Y-80518000D03*
X109982000Y-80518000D03*
X106172000Y-77724000D03*
X113792000Y-77724000D03*
X159893000Y-117221000D03*
X152273000Y-117221000D03*
X152400000Y-120142000D03*
X160020000Y-120142000D03*
X142621000Y-89916000D03*
X150241000Y-89916000D03*
X113030000Y-81788000D03*
X120650000Y-81788000D03*
X161163000Y-89535000D03*
X168783000Y-89535000D03*
X103251000Y-77724000D03*
X95631000Y-77724000D03*
X134366000Y-95250000D03*
X126746000Y-95250000D03*
X131826000Y-89916000D03*
X139446000Y-89916000D03*
X121158000Y-89916000D03*
X128778000Y-89916000D03*
X96012000Y-67310000D03*
X96012000Y-59690000D03*
X134366000Y-97917000D03*
X126746000Y-97917000D03*
X99060000Y-59690000D03*
X99060000Y-67310000D03*
X107188000Y-92456000D03*
X107188000Y-100076000D03*
X126746000Y-103632000D03*
X134366000Y-103632000D03*
X139700000Y-103886000D03*
X139700000Y-96266000D03*
X102108000Y-62992000D03*
X109728000Y-62992000D03*
X170180000Y-86614000D03*
X170180000Y-78994000D03*
X123952000Y-73406000D03*
X131572000Y-73406000D03*
X166243000Y-74295000D03*
X166243000Y-81915000D03*
X86106000Y-118618000D03*
X93726000Y-118618000D03*
X118110000Y-89916000D03*
X110490000Y-89916000D03*
X86106000Y-128016000D03*
X93726000Y-128016000D03*
X93726000Y-134112000D03*
X86106000Y-134112000D03*
X75438000Y-118618000D03*
X83058000Y-118618000D03*
X64770000Y-127381000D03*
X72390000Y-127381000D03*
X64770000Y-121158000D03*
X72390000Y-121158000D03*
X161163000Y-92329000D03*
X168783000Y-92329000D03*
X74295000Y-89789000D03*
X81915000Y-89789000D03*
X72390000Y-118364000D03*
X64770000Y-118364000D03*
X75438000Y-128016000D03*
X83058000Y-128016000D03*
X83058000Y-134112000D03*
X75438000Y-134112000D03*
X64770000Y-95123000D03*
X72390000Y-95123000D03*
X93980000Y-105664000D03*
X93980000Y-98044000D03*
X72390000Y-104394000D03*
X64770000Y-104394000D03*
X129032000Y-112522000D03*
X136652000Y-112522000D03*
X107696000Y-112522000D03*
X115316000Y-112522000D03*
X96901000Y-111760000D03*
X104521000Y-111760000D03*
X139446000Y-128778000D03*
X147066000Y-128778000D03*
X136779000Y-116332000D03*
X129159000Y-116332000D03*
X118364000Y-112522000D03*
X125984000Y-112522000D03*
X104521000Y-114554000D03*
X96901000Y-114554000D03*
X93726000Y-112522000D03*
X86106000Y-112522000D03*
X93726000Y-115570000D03*
X86106000Y-115570000D03*
X96774000Y-89662000D03*
X104394000Y-89662000D03*
X134366000Y-106553000D03*
X126746000Y-106553000D03*
X134366000Y-100838000D03*
X126746000Y-100838000D03*
X86106000Y-89662000D03*
X93726000Y-89662000D03*
X106934000Y-110109000D03*
X106934000Y-102489000D03*
D19*
X123825000Y-116586000D03*
X109855000Y-116586000D03*
X121031000Y-116586000D03*
X115443000Y-116586000D03*
X118237000Y-116586000D03*
X112649000Y-116586000D03*
D12*
X155829000Y-112776000D03*
D11*
X155829000Y-107696000D03*
D12*
X158496000Y-107696000D03*
D11*
X158496000Y-112776000D03*
D12*
X102108000Y-59690000D03*
D11*
X109728000Y-59690000D03*
D12*
X81534000Y-114808000D03*
D11*
X76454000Y-114808000D03*
D12*
X76454000Y-111760000D03*
D11*
X81534000Y-111760000D03*
X103505000Y-86487000D03*
X108585000Y-86487000D03*
X162814000Y-117094000D03*
X167894000Y-117094000D03*
D16*
X152527000Y-125603000D03*
D20*
X155067000Y-125603000D03*
D11*
X123952000Y-81788000D03*
X129032000Y-81788000D03*
X116840000Y-77724000D03*
X121920000Y-77724000D03*
D21*
X69850000Y-64008000D03*
D22*
X67310000Y-64008000D03*
D11*
X97790000Y-81788000D03*
X92710000Y-81788000D03*
D21*
X104648000Y-67310000D03*
D22*
X107188000Y-67310000D03*
D11*
X140462000Y-107696000D03*
X140462000Y-112776000D03*
X162560000Y-81915000D03*
X157480000Y-81915000D03*
X147447000Y-111252000D03*
X152527000Y-111252000D03*
X142875000Y-93218000D03*
X137795000Y-93218000D03*
X87376000Y-124714000D03*
X92456000Y-124714000D03*
X92456000Y-131064000D03*
X87376000Y-131064000D03*
X87376000Y-137160000D03*
X92456000Y-137160000D03*
X114554000Y-109982000D03*
X109474000Y-109982000D03*
X143764000Y-112776000D03*
X143764000Y-107696000D03*
X92456000Y-121666000D03*
X87376000Y-121666000D03*
X103632000Y-83312000D03*
X108712000Y-83312000D03*
X71120000Y-124079000D03*
X66040000Y-124079000D03*
X76708000Y-124968000D03*
X81788000Y-124968000D03*
X81788000Y-131064000D03*
X76708000Y-131064000D03*
X76708000Y-137160000D03*
X81788000Y-137160000D03*
X167513000Y-95250000D03*
X162433000Y-95250000D03*
X81788000Y-121666000D03*
X76708000Y-121666000D03*
X65786000Y-98171000D03*
X70866000Y-98171000D03*
X71120000Y-91821000D03*
X66040000Y-91821000D03*
X136398000Y-120523000D03*
X131318000Y-120523000D03*
X145796000Y-125857000D03*
X140716000Y-125857000D03*
X65786000Y-101473000D03*
X70866000Y-101473000D03*
X98552000Y-107696000D03*
X103632000Y-107696000D03*
X88646000Y-109728000D03*
X93726000Y-109728000D03*
X130302000Y-109728000D03*
X135382000Y-109728000D03*
X140716000Y-131699000D03*
X145796000Y-131699000D03*
X124460000Y-109855000D03*
X119380000Y-109855000D03*
X98044000Y-93726000D03*
X103124000Y-93726000D03*
D16*
X94996000Y-93726000D03*
D20*
X92456000Y-93726000D03*
M02*
