M48
; DRILL file {KiCad (5.1.9-0-10_14)} date Thursday, February 25, 2021 at 10:57:34 PM
; FORMAT={-:-/ absolute / inch / decimal}
; #@! TF.CreationDate,2021-02-25T22:57:34+01:00
; #@! TF.GenerationSoftware,Kicad,Pcbnew,(5.1.9-0-10_14)
; #@! TF.FileFunction,Plated,1,2,PTH
FMAT,2
INCH
T1C0.0157
T2C0.0394
T3C0.0433
T4C0.0472
T5C0.0551
T6C0.0606
T7C0.1000
T8C0.1260
%
G90
G05
T1
X3.765Y-4.05
X3.77Y-4.11
X3.8843Y-3.5293
X3.93Y-3.84
X3.96Y-4.015
X3.995Y-3.835
X4.07Y-3.835
X5.485Y-3.725
X5.54Y-4.875
X5.88Y-4.765
X6.5Y-4.0
X6.54Y-4.48
X6.5713Y-4.1213
T2
X2.55Y-3.745
X2.55Y-4.11
X2.55Y-4.24
X2.55Y-4.34
X2.55Y-4.44
X2.55Y-4.54
X2.55Y-4.66
X2.55Y-4.77
X2.55Y-5.015
X2.59Y-3.865
X2.59Y-3.995
X2.6Y-3.615
X2.6Y-4.885
X2.65Y-2.52
X2.75Y-2.52
X2.79Y-3.865
X2.79Y-3.995
X2.8Y-3.615
X2.8Y-4.885
X2.85Y-3.745
X2.85Y-4.11
X2.85Y-4.24
X2.85Y-4.34
X2.85Y-4.44
X2.85Y-4.54
X2.85Y-4.66
X2.85Y-4.77
X2.85Y-5.015
X2.925Y-3.535
X2.97Y-4.67
X2.97Y-5.04
X2.97Y-5.28
X3.01Y-4.4
X3.01Y-4.52
X3.02Y-4.79
X3.02Y-4.92
X3.02Y-5.16
X3.02Y-5.4
X3.21Y-4.4
X3.21Y-4.52
X3.22Y-4.79
X3.22Y-4.92
X3.22Y-5.16
X3.22Y-5.4
X3.225Y-3.535
X3.27Y-4.67
X3.27Y-5.04
X3.27Y-5.28
X3.39Y-3.53
X3.39Y-4.43
X3.39Y-4.55
X3.39Y-4.67
X3.39Y-5.04
X3.39Y-5.28
X3.44Y-4.79
X3.44Y-4.91
X3.44Y-5.16
X3.44Y-5.4
X3.49Y-4.32
X3.64Y-3.69
X3.64Y-4.79
X3.64Y-4.91
X3.64Y-5.16
X3.64Y-5.4
X3.65Y-3.22
X3.69Y-3.53
X3.69Y-4.32
X3.69Y-4.43
X3.69Y-4.55
X3.69Y-4.67
X3.69Y-5.04
X3.69Y-5.28
X3.7Y-3.86
X3.7Y-4.16
X3.74Y-3.69
X3.765Y-3.06
X3.78Y-2.35
X3.78Y-2.65
X3.8Y-5.195
X3.81Y-3.53
X3.815Y-4.4
X3.815Y-4.51
X3.85Y-3.22
X3.86Y-3.69
X3.88Y-4.24
X3.9Y-2.35
X3.9Y-2.65
X3.9Y-5.195
X4.02Y-2.35
X4.02Y-2.48
X4.03Y-3.17
X4.06Y-3.69
X4.065Y-3.06
X4.075Y-3.405
X4.08Y-3.28
X4.08Y-4.24
X4.11Y-3.53
X4.115Y-4.4
X4.115Y-4.51
X4.12Y-2.65
X4.18Y-3.06
X4.21Y-4.035
X4.21Y-4.335
X4.22Y-2.65
X4.22Y-3.64
X4.22Y-3.94
X4.24Y-4.43
X4.275Y-3.405
X4.28Y-3.28
X4.31Y-4.33
X4.32Y-2.35
X4.32Y-2.48
X4.33Y-3.17
X4.35Y-3.54
X4.45Y-3.22
X4.48Y-3.06
X4.51Y-4.33
X4.54Y-4.43
X4.6Y-3.06
X4.65Y-3.54
X4.66Y-4.43
X4.7Y-4.325
X4.75Y-3.22
X4.77Y-3.54
X4.8Y-3.06
X4.88Y-2.89
X4.88Y-3.22
X4.9Y-4.325
X4.93Y-2.66
X4.96Y-4.43
X4.99Y-3.75
X4.99Y-3.855
X4.99Y-3.97
X4.99Y-4.08
X4.99Y-4.195
X5.03Y-2.56
X5.07Y-3.54
X5.08Y-3.22
X5.08Y-4.43
X5.085Y-4.58
X5.13Y-2.66
X5.13Y-4.32
X5.17Y-4.745
X5.18Y-2.89
X5.19Y-3.54
X5.29Y-3.75
X5.29Y-3.855
X5.29Y-3.97
X5.29Y-4.08
X5.29Y-4.195
X5.33Y-4.32
X5.345Y-3.22
X5.37Y-4.745
X5.38Y-4.43
X5.385Y-4.58
X5.425Y-3.67
X5.49Y-3.54
X5.49Y-5.07
X5.5Y-3.79
X5.5Y-4.09
X5.53Y-4.24
X5.53Y-4.44
X5.54Y-4.955
X5.54Y-5.185
X5.545Y-3.22
X5.615Y-3.54
X5.625Y-3.67
X5.66Y-4.24
X5.66Y-4.44
X5.74Y-4.955
X5.74Y-5.185
X5.79Y-5.07
X5.805Y-4.38
X5.915Y-3.54
X5.995Y-4.615
X6.0Y-4.73
X6.005Y-4.38
X6.005Y-4.945
X6.105Y-4.945
X6.135Y-4.24
X6.135Y-4.44
X6.2Y-3.225
X6.24Y-4.24
X6.24Y-4.44
X6.295Y-4.615
X6.3Y-4.73
X6.345Y-3.525
X6.345Y-3.635
X6.35Y-3.9
X6.35Y-4.0
X6.35Y-4.1
X6.35Y-4.2
X6.35Y-4.3
X6.35Y-4.4
X6.35Y-4.5
X6.395Y-3.75
X6.4Y-3.225
X6.41Y-4.61
X6.545Y-2.925
X6.545Y-3.225
X6.595Y-3.75
X6.61Y-4.61
X6.645Y-3.525
X6.645Y-3.635
X6.65Y-3.9
X6.65Y-4.0
X6.65Y-4.1
X6.65Y-4.2
X6.65Y-4.3
X6.65Y-4.4
X6.65Y-4.5
X6.7Y-3.11
X6.7Y-3.41
T3
X3.004Y-3.8145
X3.004Y-4.0555
X3.1745Y-3.644
X3.1745Y-4.226
X3.1769Y-3.935
X3.4131Y-3.935
X3.4155Y-3.644
X3.4155Y-4.226
X3.586Y-3.8145
X3.586Y-4.0555
X4.309Y-3.8145
X4.309Y-4.0555
X4.4795Y-3.644
X4.4795Y-4.226
X4.6Y-3.8169
X4.6Y-4.0531
X4.7205Y-3.644
X4.7205Y-4.226
X4.891Y-3.8145
X4.891Y-4.0555
X5.614Y-3.8145
X5.614Y-4.0555
X5.7845Y-3.644
X5.7845Y-4.226
X5.905Y-3.8169
X5.905Y-4.0531
X6.0255Y-3.644
X6.0255Y-4.226
X6.196Y-3.8145
X6.196Y-4.0555
T4
X4.325Y-4.59
X4.435Y-4.59
X4.545Y-4.59
X4.655Y-4.59
X4.765Y-4.59
X4.875Y-4.59
T5
X2.7Y-3.405
X2.9Y-3.405
X3.1Y-3.405
X3.55Y-3.405
X3.75Y-3.405
X3.95Y-3.405
X4.4Y-3.405
X4.6Y-3.405
X4.8Y-3.405
X5.25Y-3.4
X5.45Y-3.4
X5.65Y-3.4
X6.1Y-3.4
X6.3Y-3.4
X6.5Y-3.4
T7
X4.595Y-2.5
T8
X4.595Y-2.775
T2
G00X3.0055Y-2.5048
M15
G01X3.0055Y-2.4852
M16
G05
G00X3.0055Y-2.7548
M15
G01X3.0055Y-2.7352
M16
G05
G00X3.0055Y-3.0048
M15
G01X3.0055Y-2.9852
M16
G05
G00X3.6445Y-2.5048
M15
G01X3.6445Y-2.4852
M16
G05
G00X3.6445Y-2.7548
M15
G01X3.6445Y-2.7352
M16
G05
G00X3.6445Y-3.0048
M15
G01X3.6445Y-2.9852
M16
G05
G00X5.5555Y-2.5048
M15
G01X5.5555Y-2.4852
M16
G05
G00X5.5555Y-2.7548
M15
G01X5.5555Y-2.7352
M16
G05
G00X5.5555Y-3.0048
M15
G01X5.5555Y-2.9852
M16
G05
G00X6.1945Y-2.5048
M15
G01X6.1945Y-2.4852
M16
G05
G00X6.1945Y-2.7548
M15
G01X6.1945Y-2.7352
M16
G05
G00X6.1945Y-3.0048
M15
G01X6.1945Y-2.9852
M16
G05
T6
G00X4.395Y-2.6053
M15
G01X4.395Y-2.6447
M16
G05
T0
M30
